<svg xmlns="http://www.w3.org/2000/svg" viewBox="0 0 600 750" width="600" height="750">
  <defs>
    <linearGradient id="bgGrad1" x1="0%" y1="0%" x2="0%" y2="100%">
      <stop offset="0%" stop-color="#ffffff"/>
      <stop offset="100%" stop-color="#fff8f2"/>
    </linearGradient>
    <filter id="shadow1" x="-10%" y="-10%" width="120%" height="120%">
      <feDropShadow dx="0" dy="4" stdDeviation="4" flood-opacity="0.15"/>
    </filter>
  </defs>
  
  <!-- Background -->
  <rect width="600" height="750" fill="url(#bgGrad1)" rx="24"/>
  <rect x="8" y="8" width="584" height="734" fill="none" stroke="#f97316" stroke-width="4" rx="20"/>

  <!-- Top Koala Mascot -->
  <g transform="translate(300, 115)">
    <!-- Ears -->
    <circle cx="-65" cy="-35" r="34" fill="#94a3b8"/>
    <circle cx="-65" cy="-35" r="22" fill="#fbcfe8"/>
    <circle cx="65" cy="-35" r="34" fill="#94a3b8"/>
    <circle cx="65" cy="-35" r="22" fill="#fbcfe8"/>
    <!-- Head -->
    <ellipse cx="0" cy="0" rx="60" ry="50" fill="#cbd5e1"/>
    <!-- Cheeks -->
    <circle cx="-35" cy="12" r="10" fill="#f472b6" opacity="0.6"/>
    <circle cx="35" cy="12" r="10" fill="#f472b6" opacity="0.6"/>
    <!-- Eyes -->
    <ellipse cx="-22" cy="-6" rx="8" ry="11" fill="#0f172a"/>
    <circle cx="-20" cy="-9" r="3.5" fill="#ffffff"/>
    <ellipse cx="22" cy="-6" rx="8" ry="11" fill="#0f172a"/>
    <circle cx="24" cy="-9" r="3.5" fill="#ffffff"/>
    <!-- Nose -->
    <ellipse cx="0" cy="4" rx="18" ry="24" fill="#475569"/>
    <!-- Smile -->
    <path d="M -12 24 Q 0 34 12 24" fill="none" stroke="#0f172a" stroke-width="3" stroke-linecap="round"/>
    <!-- Body & Waving Arms -->
    <path d="M -30 45 C -45 60 -40 100 0 100 C 40 100 45 60 30 45" fill="#94a3b8"/>
    <ellipse cx="0" cy="72" rx="22" ry="20" fill="#ffffff"/>
    <!-- Waving Left Hand -->
    <path d="M -35 55 Q -65 40 -60 20 Q -45 25 -35 45" fill="#94a3b8"/>
    <!-- Waving Right Hand -->
    <path d="M 35 55 Q 65 40 60 20 Q 45 25 35 45" fill="#94a3b8"/>
  </g>

  <!-- Brand Title -->
  <g transform="translate(300, 260)" text-anchor="middle">
    <text font-family="'Fredoka', system-ui, -apple-system, sans-serif" font-weight="900" font-size="52" fill="#ea580c" stroke="#9a3412" stroke-width="2" letter-spacing="-1">
      Koala
    </text>
    <text y="42" font-family="'Fredoka', system-ui, -apple-system, sans-serif" font-weight="800" font-size="34" fill="#1e293b">
      Lo tiene!
    </text>
  </g>

  <!-- Headline: ¡MEGA OFERTAS en Koala! -->
  <g transform="translate(300, 365)" text-anchor="middle">
    <text font-family="'Fredoka', system-ui, -apple-system, sans-serif" font-weight="900" font-size="44" fill="#f97316" stroke="#0f172a" stroke-width="4" paint-order="stroke fill" letter-spacing="0">
      ¡MEGA OFERTAS
    </text>
    <text y="52" font-family="'Fredoka', system-ui, -apple-system, sans-serif" font-weight="900" font-size="46" fill="#0f172a">
      en Koala!
    </text>
  </g>

  <!-- Product Assortment Illustrations -->
  <g transform="translate(40, 450)">
    <!-- 1. Balloons Bundle (Left) -->
    <g transform="translate(80, 50)">
      <ellipse cx="-30" cy="-20" rx="22" ry="28" fill="#ef4444"/>
      <ellipse cx="25" cy="-25" rx="20" ry="26" fill="#3b82f6"/>
      <ellipse cx="-5" cy="-45" rx="24" ry="30" fill="#eab308"/>
      <ellipse cx="-20" cy="15" rx="18" ry="24" fill="#ec4899"/>
      <ellipse cx="20" cy="10" rx="20" ry="26" fill="#06b6d4"/>
      <ellipse cx="0" cy="-10" rx="22" ry="28" fill="#10b981"/>
      <!-- Strings -->
      <path d="M 0 18 L 0 85 M -20 38 L 0 85 M 20 35 L 0 85" stroke="#94a3b8" stroke-width="2"/>
      <!-- Gift bags -->
      <rect x="-35" y="80" width="30" height="38" rx="4" fill="#f472b6" stroke="#db2777" stroke-width="2"/>
      <rect x="5" y="80" width="30" height="38" rx="4" fill="#38bdf8" stroke="#0284c7" stroke-width="2"/>
    </g>

    <!-- 2. Packaging Film Rolls (Center) -->
    <g transform="translate(260, 50)">
      <rect x="-45" y="-10" width="35" height="100" rx="6" fill="#d97706" stroke="#78350f" stroke-width="2"/>
      <ellipse cx="-27.5" cy="-10" rx="17.5" ry="8" fill="#fef3c7" stroke="#78350f" stroke-width="2"/>
      
      <rect x="-5" y="-30" width="38" height="120" rx="6" fill="#cbd5e1" stroke="#475569" stroke-width="2"/>
      <ellipse cx="14" cy="-30" rx="19" ry="8" fill="#f8fafc" stroke="#475569" stroke-width="2"/>
      
      <rect x="38" y="10" width="30" height="80" rx="6" fill="#e2e8f0" stroke="#64748b" stroke-width="2"/>
      <ellipse cx="53" cy="10" rx="15" ry="7" fill="#ffffff" stroke="#64748b" stroke-width="2"/>
      
      <!-- Horizontal rolls at bottom -->
      <rect x="-35" y="85" width="80" height="24" rx="6" fill="#b45309" stroke="#78350f" stroke-width="2"/>
      <circle cx="-35" cy="97" r="12" fill="#fed7aa" stroke="#78350f" stroke-width="2"/>
    </g>

    <!-- 3. Party Supplies & Stationery (Right) -->
    <g transform="translate(430, 50)">
      <!-- Party plate -->
      <circle cx="0" cy="40" r="32" fill="#fbcfe8" stroke="#db2777" stroke-width="3"/>
      <circle cx="0" cy="40" r="22" fill="#ffffff" stroke="#f472b6" stroke-width="2" stroke-dasharray="4,3"/>
      <!-- Stickers pack -->
      <rect x="-25" y="-35" width="55" height="70" rx="4" fill="#ffffff" stroke="#e2e8f0" stroke-width="2" filter="url(#shadow1)"/>
      <rect x="-25" y="-35" width="55" height="18" fill="#ec4899"/>
      <circle cx="-10" cy="0" r="6" fill="#f59e0b"/>
      <circle cx="12" cy="0" r="6" fill="#10b981"/>
      <circle cx="0" cy="18" r="6" fill="#3b82f6"/>
      <!-- Markers -->
      <rect x="35" y="-25" width="8" height="50" rx="2" fill="#ef4444"/>
      <rect x="45" y="-20" width="8" height="45" rx="2" fill="#3b82f6"/>
      <rect x="55" y="-15" width="8" height="40" rx="2" fill="#eab308"/>
    </g>
  </g>

  <!-- Footer Banner -->
  <g transform="translate(300, 695)" text-anchor="middle">
    <text font-family="'Fredoka', system-ui, -apple-system, sans-serif" font-weight="800" font-size="24" fill="#0f172a">
      Fábrica y Distribuidora Alto Valle
    </text>
  </g>
</svg>